<svg width="31" height="19" viewBox="0 0 31 19" fill="none" xmlns="http://www.w3.org/2000/svg">
<path d="M8.26665 18.7533C8.14665 18.7533 8.04998 18.6567 8.04998 18.5367C8.04998 18.4667 8.08332 18.4033 8.13332 18.3633L12.5433 15.11H0.95999C0.836657 15.11 0.73999 15.0133 0.73999 14.8933C0.73999 14.82 0.776657 14.7533 0.833324 14.7133L6.89332 10.2467C6.93332 10.21 6.98665 10.1833 7.04665 10.1833H11.7466C12.8 10.2233 13.36 10.3367 13.6866 10.55C14.08 10.8133 14.1966 11.1133 14.27 11.3133C14.7933 12.7533 15.47 17.3367 15.5033 17.56C15.5366 17.3367 16.21 12.7533 16.7333 11.3133C16.81 11.1133 16.9233 10.8133 17.32 10.55C17.6433 10.3367 18.2066 10.2233 19.26 10.1833H30.78C30.9 10.1833 31 10.2834 31 10.4034C31 10.4767 30.96 10.5434 30.9 10.5834L19.9133 18.71C19.8766 18.7367 19.83 18.7533 19.7833 18.7533H8.26665Z" fill="white"/>
<path d="M30.0533 3.64333C30.1733 3.64333 30.27 3.74 30.27 3.86C30.27 3.93333 30.2333 4 30.18 4.04L24.08 8.52999C24.0433 8.55333 24 8.56666 23.9533 8.56666H19.2567C18.2033 8.52999 17.64 8.41666 17.3167 8.20333C16.9233 7.93999 16.8067 7.63999 16.7333 7.43999C16.2067 6 15.5333 1.41667 15.5 1.19333C15.4667 1.41667 14.79 6 14.2667 7.43999C14.1933 7.63999 14.0767 7.93999 13.6833 8.20333C13.3567 8.41666 12.7967 8.52999 11.7433 8.56666L0.216666 8.56999C0.0966665 8.56999 0 8.47333 0 8.35333C0 8.28666 0.0266665 8.22999 0.0766665 8.18999L0.426666 7.93L11.0867 0.0466677C11.1233 0.0166677 11.17 0 11.2233 0H22.74C22.86 0 22.9567 0.0966665 22.9567 0.22C22.9567 0.29 22.9233 0.353333 22.87 0.393333L18.4567 3.64333H30.0533Z" fill="#E3000F"/>
</svg>
